<?xml version="1.0" encoding="UTF-8"?><svg id="Layer_2" xmlns="http://www.w3.org/2000/svg" xmlns:xlink="http://www.w3.org/1999/xlink" viewBox="0 0 800 800"><defs><style>.cls-1{fill:url(#linear-gradient);}.cls-2{fill:#fff;}</style><linearGradient id="linear-gradient" x1="117.16" y1="682.84" x2="682.84" y2="117.16" gradientUnits="userSpaceOnUse"><stop offset="0" stop-color="#f90"/><stop offset=".12" stop-color="#fb0"/><stop offset=".51" stop-color="#ffdb3d" stop-opacity="0"/></linearGradient></defs><g id="Layer_1-2"><path class="cls-1" d="M400,0C179.09,0,0,179.09,0,400s179.09,400,400,400,400-179.09,400-400S620.91,0,400,0ZM400,669.58c-148.88,0-269.58-120.69-269.58-269.58S251.12,130.42,400,130.42s269.58,120.69,269.58,269.58-120.69,269.58-269.58,269.58Z"/><path class="cls-2" d="M56.49,452.76l-1.67-11.32-15.32-2.43-1.37-9.26,15.32,2.43-1.05-7.12,8.31-1.23,1.44,9.73,10.84,1.63-1.05-7.12,8.31-1.23,1.45,9.81,15.22,2.28,1.39,9.42-15.24-2.44,1.66,11.24,15.23,2.36,1.38,9.34-15.24-2.44,1.04,7.04-8.31,1.23-1.43-9.66-10.85-1.71,1.06,7.2-8.31,1.23-1.45-9.81-15.32-2.43-1.37-9.26,15.33,2.51ZM63.51,442.83l1.67,11.32,10.82,1.55-1.65-11.16-10.85-1.71Z"/><path class="cls-2" d="M71.13,503.95c-4.58,2.43-5.71,7.48-4.06,12.24,1.52,4.38,4.69,6.93,8.09,5.75,2.87-1,4.36-3.79,4.01-9.43l-.3-6.25c-.51-9.3,2.87-16.66,11-19.56,9.88-3.51,18.39,1.76,22.11,12.49,4.01,11.57-1.93,21.33-9.81,24.48l-3.77-10.89c4.12-2.78,4.55-6.91,3.45-10.08-1.34-3.86-4.2-6.25-7.4-5.23-3.35,1.08-4.33,4.12-4.1,8.95l.44,6.88c.59,9.53-3.12,16.66-11.43,19.54-9.15,3.17-18.52-1.88-22.42-13.15-4.45-12.85,1.7-23.19,10.39-26.71l3.8,10.96Z"/><path class="cls-2" d="M123.25,531.74l5.8,10.05-19.61,11.32,12.32,21.34,19.61-11.32,5.8,10.05-49.2,28.39-5.8-10.05,20.02-11.56-12.32-21.34-20.02,11.56-5.8-10.05,49.2-28.39Z"/><path class="cls-2" d="M158.06,586.63l7.27,9.04-44.28,35.58-7.27-9.04,44.28-35.58Z"/><path class="cls-2" d="M167.98,678.67l3.33-46.99-24.89,27.43-8.59-7.79,38.17-42.06,7.4,6.72-3.33,46.99,24.89-27.43,8.59,7.79-38.17,42.06-7.4-6.72Z"/><path class="cls-2" d="M228.09,652.64l9.71,6.35-31.1,47.53-9.71-6.35,31.1-47.53Z"/><path class="cls-2" d="M266.06,737.08l-11.43-45.71-15.15,33.8-10.59-4.74,23.23-51.84,9.13,4.09,11.43,45.71,15.15-33.81,10.59,4.74-23.23,51.84-9.13-4.09Z"/><path class="cls-2" d="M339.68,698.57c11.68,2.37,21.1,11.46,22.73,22.73l-13.01-2.64c-1.92-4.63-6.61-8.03-11.95-9.12-10.66-2.16-19.31,4.25-21.33,14.2-2.02,9.96,3.45,19.23,14.27,21.42,9.02,1.83,15.43-2.01,18.24-9.44l-17.01-3.45,2.16-10.66,28.77,5.83c-2.13,23.4-17.85,32.05-34.39,28.7-17.01-3.45-26.76-18.57-23.49-34.72s18.14-26.28,35-22.86Z"/></g></svg>